HIERARCHY
ROOT Hips
{
	OFFSET 12.549683 106.216415 -3.467426
	CHANNELS 6 Xposition Yposition Zposition Xrotation Yrotation Zrotation
	JOINT Chest
	{
		OFFSET -1.388010 13.555107 0.697663
		CHANNELS 3 Xrotation Yrotation Zrotation
		JOINT Chest2
		{
			OFFSET -2.801528 21.167885 1.771576
			CHANNELS 3 Xrotation Yrotation Zrotation
			JOINT Chest3
			{
				OFFSET 1.843400 14.802246 -0.561664
				CHANNELS 3 Xrotation Yrotation Zrotation
				JOINT Neck
				{
					OFFSET 0.335738 17.261871 0.728615
					CHANNELS 3 Xrotation Yrotation Zrotation
					JOINT Head
					{
						OFFSET -2.296301 10.058014 1.841513
						CHANNELS 3 Xrotation Yrotation Zrotation
						End Site
						{
							OFFSET -2.259576 10.077148 1.781273
						}
					}
				}
				JOINT LeftCollar
				{
					OFFSET 3.347530 13.012711 4.611710
					CHANNELS 3 Xrotation Yrotation Zrotation
					JOINT LeftUpArm
					{
						OFFSET 17.136520 2.863022 -2.577255
						CHANNELS 3 Xrotation Yrotation Zrotation
						JOINT LeftLowArm
						{
							OFFSET 28.614010 12.594467 12.741488
							CHANNELS 3 Xrotation Yrotation Zrotation
							JOINT LeftHand
							{
								OFFSET 25.961372 8.979156 12.096625
								CHANNELS 3 Xrotation Yrotation Zrotation
								End Site
								{
									OFFSET 5.674011 1.962463 2.643787
								}
							}
						}
					}
				}
				JOINT RightCollar
				{
					OFFSET -4.642243 13.279388 1.978942
					CHANNELS 3 Xrotation Yrotation Zrotation
					JOINT RightUpArm
					{
						OFFSET -12.764421 5.477966 -10.749771
						CHANNELS 3 Xrotation Yrotation Zrotation
						JOINT RightLowArm
						{
							OFFSET -29.444490 16.004227 4.076821
							CHANNELS 3 Xrotation Yrotation Zrotation
							JOINT RightHand
							{
								OFFSET -25.469219 14.551437 6.366202
								CHANNELS 3 Xrotation Yrotation Zrotation
								End Site
								{
									OFFSET -5.566566 3.180344 1.391397
								}
							}
						}
					}
				}
			}
		}
	}
	JOINT LeftUpLeg
	{
		OFFSET 7.349037 0.402290 6.800659
		CHANNELS 3 Xrotation Yrotation Zrotation
		JOINT LeftLowLeg
		{
			OFFSET -13.406452 -43.811310 12.034372
			CHANNELS 3 Xrotation Yrotation Zrotation
			JOINT LeftFoot
			{
				OFFSET -2.717013 -44.394455 -4.724294
				CHANNELS 3 Xrotation Yrotation Zrotation
				JOINT LeftToe
				{
					OFFSET -8.484858 -17.655699 13.260585
					CHANNELS 3 Xrotation Yrotation Zrotation
					End Site
					{
						OFFSET -8.249498 -4.175032 21.773235
					}
				}
			}
		}
	}
	JOINT RightUpLeg
	{
		OFFSET -7.349020 -0.402489 -6.800671
		CHANNELS 3 Xrotation Yrotation Zrotation
		JOINT RightLowLeg
		{
			OFFSET 6.909454 -46.027771 -8.815666
			CHANNELS 3 Xrotation Yrotation Zrotation
			JOINT RightFoot
			{
				OFFSET 7.972626 -43.030510 -9.240797
				CHANNELS 3 Xrotation Yrotation Zrotation
				JOINT RightToe
				{
					OFFSET -18.983433 -13.852936 2.698526
					CHANNELS 3 Xrotation Yrotation Zrotation
					End Site
					{
						OFFSET -22.177935 0.771403 8.191477
					}
				}
			}
		}
	}
}
MOTION
Frames: 8
Frame Time: 0.033333
21.608454 106.042137 -13.971996 -18.657124 -1.392433 -24.530942 15.372565 2.165727 8.188120 1.426819 -1.307260 2.865258 -4.855351 20.175824 7.516003 0.318717 -12.683029 9.282626 0.000000 -0.000003 -0.000001 1.628783 -6.714577 -0.844161 5.302594 -4.007699 -8.645974 89.434627 -37.601479 122.006276 -0.000001 -0.000005 -0.000006 1.113659 21.897489 23.399627 20.601138 74.959619 16.663790 49.583874 30.680175 -56.910468 0.000001 -0.000002 0.000007 -40.594458 8.916268 -19.076022 13.790879 3.174974 8.053687 -14.239849 -3.532479 -1.189258 -0.000003 0.000003 -0.000001 11.104138 -0.399359 4.453405 18.399544 1.221664 33.993387 -11.649555 1.686408 -2.567755 -0.000000 0.000000 0.000002 
21.555416 105.955933 -14.022406 -18.999501 -1.462617 -24.778101 15.752580 2.233591 8.464797 1.023774 -1.674226 3.153832 -4.573501 20.259398 7.072764 0.699917 -12.581563 9.399172 0.000001 -0.000001 -0.000000 1.825346 -7.377323 -0.682305 5.076668 -3.008316 -9.400664 91.939312 -38.418206 120.578042 -0.000001 0.000000 0.000002 0.883606 21.702812 23.458403 16.138813 75.609197 22.226919 48.410250 31.137849 -54.399749 -0.000002 0.000001 0.000002 -40.517341 9.016525 -19.265880 12.150245 3.420206 8.164518 -13.363436 -3.723549 -1.233580 0.000002 0.000001 -0.000002 11.339108 -0.427362 4.448060 19.025897 1.690149 34.148258 -11.985123 2.007619 -2.033912 -0.000000 0.000002 0.000002 
21.499660 105.864464 -14.066633 -19.209072 -1.374272 -24.983408 16.009525 2.320582 8.770925 1.352675 -1.632197 3.236843 -4.890301 20.058722 6.854592 1.338635 -12.441321 9.534753 0.000001 -0.000001 -0.000001 1.122148 -6.608331 -0.977752 4.784972 -3.558484 -9.815576 94.879845 -38.794556 120.576990 -0.000000 -0.000001 -0.000004 0.431612 21.595602 23.620493 8.998723 76.123858 30.566541 49.000771 32.556028 -52.480663 0.000001 -0.000001 0.000002 -40.696555 9.192577 -19.654100 11.303966 3.720655 8.091622 -12.835533 -3.537986 -1.042538 0.000001 0.000005 -0.000001 11.761576 -0.457071 4.347548 19.195939 1.734321 34.666738 -12.398089 2.034263 -1.947365 0.000001 0.000002 0.000000 
21.451885 105.778458 -14.116875 -19.592562 -1.852042 -25.177949 15.894289 2.306689 8.808475 1.641160 -1.462980 3.111303 -4.912851 19.985473 6.908913 1.652124 -12.315830 9.637303 -0.000001 -0.000001 -0.000000 0.730315 -5.879888 -1.021407 4.930095 -4.046492 -10.138499 96.198454 -39.077066 120.156360 0.000001 0.000002 -0.000000 0.386115 21.645704 23.648497 5.827114 76.348777 34.425284 48.954807 32.988571 -51.325361 -0.000001 -0.000001 0.000005 -41.166991 9.206546 -19.197558 11.017884 3.853200 7.345284 -12.626068 -2.896361 -0.617281 -0.000003 0.000000 0.000003 12.059159 -0.433101 4.096403 19.545809 1.842021 34.990014 -12.901830 2.214226 -1.753358 0.000000 0.000002 0.000000 
21.408566 105.694283 -14.164181 -19.702869 -2.137150 -25.440322 16.596824 2.427940 8.837786 0.814562 -1.942437 3.405217 -4.239637 20.578472 6.629111 1.397847 -12.479451 9.619037 0.000001 -0.000002 -0.000000 1.398864 -6.723455 -0.766404 5.130881 -2.840434 -10.085388 95.248361 -39.248005 119.015964 -0.000001 0.000000 0.000003 0.556806 21.692882 23.850228 8.663184 76.278419 31.420062 48.984252 32.459084 -51.367923 -0.000002 -0.000000 -0.000001 -41.471123 9.351813 -19.437091 10.848598 3.759670 7.023234 -12.780054 -2.433003 -0.386734 0.000003 0.000001 -0.000000 11.905016 -0.443985 4.103657 19.658738 1.925935 35.219997 -12.873006 2.182362 -1.990187 -0.000000 0.000002 0.000000 
21.367605 105.607986 -14.201057 -20.110169 -3.147231 -25.666123 16.948884 2.500202 8.738345 1.301833 -1.765716 3.365045 -4.603081 21.075691 6.665411 2.045406 -12.079343 9.480277 0.000000 -0.000004 -0.000000 0.902358 -5.626093 -0.792939 5.268649 -4.001841 -10.335737 96.430667 -40.093511 117.684433 0.000001 0.000002 -0.000005 0.516276 21.512587 23.703195 5.957549 76.590463 34.647091 48.666710 32.830411 -50.472373 -0.000000 -0.000000 0.000000 -42.526018 9.535625 -18.897441 9.670379 3.855854 7.098551 -11.472848 -2.190188 -0.177820 -0.000000 -0.000001 0.000001 11.817966 -0.451901 3.429896 20.283712 2.502618 35.872379 -12.802227 2.220063 -2.002119 0.000000 0.000002 0.000000 
21.326143 105.526649 -14.225924 -20.794864 -2.725574 -25.826972 16.902702 2.496919 9.107746 1.315682 -1.890560 3.608084 -4.532557 20.402871 6.277899 3.078085 -11.476803 9.637254 0.000001 0.000000 0.000001 0.872117 -5.539165 -0.615875 5.490689 -3.644432 -11.084729 98.369723 -40.661134 116.631081 0.000001 -0.000001 -0.000000 0.347772 21.121896 23.910421 -2.505922 76.593099 45.020611 47.691618 32.788825 -48.650481 0.000000 -0.000002 0.000005 -42.007221 9.506075 -19.250997 9.319583 3.835754 7.003844 -11.181331 -1.922120 -0.023064 0.000004 -0.000002 -0.000001 12.644801 -0.350199 3.326522 19.973881 2.477474 36.590444 -12.804925 2.010684 -2.363008 0.000000 0.000002 -0.000001 
21.293808 105.448479 -14.254341 -21.287514 -2.573216 -26.077749 17.163989 2.581322 9.675361 1.222360 -2.190618 4.038608 -3.919633 19.892926 5.351493 3.334680 -11.199543 9.386152 0.000000 0.000000 -0.000000 0.697030 -5.314083 -0.934540 5.137632 -2.971068 -11.309323 100.336667 -41.639005 115.327621 -0.000004 -0.000001 0.000002 0.315490 21.512475 24.072833 -6.006956 75.433729 49.127771 48.134276 33.598107 -47.671394 -0.000001 -0.000000 0.000002 -41.889957 9.619828 -19.722076 8.956580 3.932488 7.211915 -10.679189 -1.771461 0.012770 -0.000003 0.000004 0.000001 12.741915 -0.366716 3.020982 20.439905 2.892770 37.536315 -12.404383 1.358115 -3.360115 0.000002 0.000002 0.000000 
